<svg xmlns="http://www.w3.org/2000/svg" viewBox="0 0 192 192" width="192" height="192">
  <rect width="192" height="192" rx="36" fill="#1a1a22"/>
  <circle cx="65" cy="52" r="9" fill="#f5a623"/>
  <line x1="65" y1="61" x2="69" y2="95" stroke="#f5a623" stroke-width="7" stroke-linecap="round"/>
  <line x1="67" y1="75" x2="48" y2="84" stroke="#f5a623" stroke-width="5" stroke-linecap="round"/>
  <line x1="67" y1="75" x2="86" y2="68" stroke="#f5a623" stroke-width="5" stroke-linecap="round"/>
  <line x1="69" y1="95" x2="53" y2="122" stroke="#f5a623" stroke-width="6" stroke-linecap="round"/>
  <line x1="69" y1="95" x2="81" y2="112" stroke="#f5a623" stroke-width="6" stroke-linecap="round"/>
  <line x1="81" y1="112" x2="90" y2="103" stroke="#f5a623" stroke-width="5" stroke-linecap="round"/>
  <circle cx="127" cy="52" r="9" fill="#f5a623"/>
  <line x1="127" y1="61" x2="123" y2="95" stroke="#f5a623" stroke-width="7" stroke-linecap="round"/>
  <line x1="125" y1="75" x2="144" y2="84" stroke="#f5a623" stroke-width="5" stroke-linecap="round"/>
  <line x1="125" y1="75" x2="106" y2="68" stroke="#f5a623" stroke-width="5" stroke-linecap="round"/>
  <line x1="123" y1="95" x2="139" y2="122" stroke="#f5a623" stroke-width="6" stroke-linecap="round"/>
  <line x1="123" y1="95" x2="111" y2="112" stroke="#f5a623" stroke-width="6" stroke-linecap="round"/>
  <line x1="111" y1="112" x2="102" y2="103" stroke="#f5a623" stroke-width="5" stroke-linecap="round"/>
  <rect x="73" y="87" width="46" height="7" rx="3.5" fill="#f5a623"/>
  <text x="96" y="158" text-anchor="middle" font-family="Arial Black, sans-serif" font-weight="900" font-size="20" fill="#f5a623" letter-spacing="5">HYROX</text>
</svg>
